PathFileType	4	(X/Y/Z)	/Users/rkoike/Documents/python/sports2d/webcam_20251024_144952/webcam_20251024_144952_px_person00.trc
DataRate	CameraRate	NumFrames	NumMarkers	Units	OrigDataRate	OrigDataStartFrame	OrigNumFrames
30	30	10	22	m	30	0	962
Frame#	Time	Hip			RHip			RKnee			RAnkle			RBigToe			RSmallToe			RHeel			LHip			LKnee			LAnkle			LBigToe			LSmallToe			LHeel			Neck			Head			Nose			RShoulder			RElbow			RWrist			LShoulder			LElbow			LWrist			
		X1	Y1	Z1	X2	Y2	Z2	X3	Y3	Z3	X4	Y4	Z4	X5	Y5	Z5	X6	Y6	Z6	X7	Y7	Z7	X8	Y8	Z8	X9	Y9	Z9	X10	Y10	Z10	X11	Y11	Z11	X12	Y12	Z12	X13	Y13	Z13	X14	Y14	Z14	X15	Y15	Z15	X16	Y16	Z16	X17	Y17	Z17	X18	Y18	Z18	X19	Y19	Z19	X20	Y20	Z20	X21	Y21	Z21	X22	Y22	Z22
0	0.0	553.2611091138109	733.3404036650323	0.0	405.3440615448887	748.1543146346546	0.0	276.1956189383153	677.2419828676473	0.0	181.40581050550895	715.0871150593762	0.0			0.0			0.0			0.0	581.3751784400696	754.0219868737814	0.0	802.0780493776499	698.3604806220928	0.0	1021.932276024585	610.158658450232	0.0	513.93505859375	710.3623046875	0.0	836.0301041541002	273.4706758332129	0.0			0.0	569.3317617459725	375.3345877748114	0.0	508.91669266432154	31.583726274119222	0.0	467.25011241321005	225.33463492222486	0.0	408.9148179984191	456.5841606600671	0.0	348.4982062323156	698.2487212849405	0.0	319.3337581572957	706.5815777887277	0.0	804.7501857875098	504.50080903083966	0.0	865.1685598907553	696.1634195122581	0.0	810.2151307958551	1334.923734423011	0.0
1	0.033368019424210894	550.7754584062694	735.8603846442725	0.0	405.3439235562174	748.1545791477894	0.0	276.1956189473486	677.2419828666639	0.0	181.40581050550895	715.0871150593762	0.0			0.0			0.0			0.0	581.3755117129535	754.0222072201088	0.0	802.0780493776499	698.3604806220927	0.0	1021.932276024585	610.158658450232	0.0	513.93505859375	710.3623046875	0.0	836.0301041541002	273.4706758332129	0.0			0.0	577.060190019777	371.17421455708416	0.0	507.4647237290416	29.194989723935176	0.0	469.84905929740404	223.5816687756004	0.0	416.8606830624413	452.2680275500525	0.0	358.5747212617764	690.787387710618	0.0	314.8919059006506	709.505223908997	0.0	809.0281343579744	501.51161154266526	0.0	865.3241358675277	711.8600868153471	0.0	810.2151307978353	1334.9237344267895	0.0
2	0.06673603884842179	548.2526786288181	738.3966444459454	0.0	405.34410945611995	748.1542234539514	0.0	276.1956189777534	677.2419828539331	0.0	181.40581050550895	715.0871150593762	0.0			0.0			0.0			0.0	581.3750650154958	754.0219109084427	0.0	802.0780493776499	698.3604806220927	0.0	1021.932276024585	610.158658450232	0.0	513.93505859375	710.3623046875	0.0	836.0301041541002	273.4706758332129	0.0			0.0	581.2802002163917	366.06246042937215	0.0	504.40985668960303	27.731781364833857	0.0	472.2980336088638	221.31389726312335	0.0	420.86485586995644	451.7911952508675	0.0	361.1031210638963	690.0673064742318	0.0	309.82155933669856	714.2415398919738	0.0	811.3115873882451	498.6846216388038	0.0	865.4923612664262	721.2355553141031	0.0	810.2151307969402	1334.9237344265405	0.0
3	0.10010405827263269	545.744038074429	740.9275948994366	0.0	405.3451649576008	748.1522013907544	0.0	276.19561898899946	677.2419828349302	0.0	181.40581050550895	715.0871150593762	0.0			0.0			0.0			0.0	581.3725200725122	754.0202264593464	0.0	802.0780493776499	698.3604806220928	0.0	1021.932276024585	610.158658450232	0.0	513.93505859375	710.3623046875	0.0	836.0301041541002	273.4706758332129	0.0			0.0	579.7009912840375	364.8674002800276	0.0	502.8970585804361	28.224987342599707	0.0	472.9091165317742	221.19928960513536	0.0	418.5030263841848	454.475065615478	0.0	356.774997893566	692.7812880526726	0.0	307.4457015423883	716.003601794797	0.0	810.3086876990068	497.73833845785833	0.0	865.2687647022811	718.1425101973673	0.0	810.2151307851387	1334.9237344067749	0.0
4	0.13347207769684358	543.4662215497439	743.3581220131681	0.0	405.3462074520396	748.1502019910805	0.0	276.1956188549496	677.2419828640836	0.0	181.40581050550895	715.0871150593762	0.0			0.0			0.0			0.0	581.3699986780757	754.0185609219582	0.0	802.0780493776499	698.3604806220928	0.0	1021.932276024585	610.158658450232	0.0	513.93505859375	710.3623046875	0.0	836.0301041541002	273.4706758332129	0.0			0.0	576.0665813602865	368.9493970188803	0.0	504.82895357770917	30.029901147881404	0.0	471.53396569630684	223.85546613000804	0.0	414.057231712898	456.1651502713948	0.0	354.1426530625533	693.0399797603959	0.0	310.3581982345381	712.6842957654462	0.0	808.153988094872	499.3789868638449	0.0	864.2521021442806	709.9803693174583	0.0	810.2151307674388	1334.923734370746	0.0
5	0.16684009712105446	541.5352612237948	745.6334004874768	0.0	405.3427844823716	748.1567552459843	0.0	276.19561854454975	677.2419830161442	0.0	181.40581050550895	715.0871150593762	0.0			0.0			0.0			0.0	581.378237131917	754.024020072395	0.0	802.0780493776499	698.3604806220927	0.0	1021.932276024585	610.158658450232	0.0	513.93505859375	710.3623046875	0.0	836.0301041541002	273.4706758332129	0.0			0.0	576.1632297855588	371.2449773930156	0.0	506.281629443121	30.89572693793984	0.0	471.05064481980367	225.3902052717795	0.0	412.81477419828826	456.59784754090725	0.0	357.5664840258078	692.861006646098	0.0	316.80544125793216	710.7996411667663	0.0	808.5676368995742	501.0868636203423	0.0	863.1325855529223	711.1298508028452	0.0	810.2151307943054	1334.9237344036953	0.0
6	0.20020811654526538	539.071124478673	748.1326177199094	0.0	405.3310010794378	748.1793326311786	0.0	276.1956186433599	677.2419831542189	0.0	181.40581050550895	715.0871150593762	0.0			0.0			0.0			0.0	581.4066604315719	754.0428277711322	0.0	802.0780493776499	698.3604806220927	0.0	1021.932276024585	610.158658450232	0.0	513.93505859375	710.3623046875	0.0	836.0301041541002	273.4706758332129	0.0			0.0	578.2669629291843	368.678649513225	0.0	504.67707773963195	30.245928848326404	0.0	472.2340632705061	224.3106233872519	0.0	412.2358699913607	459.7298812227397	0.0	360.80344036258765	695.9923973342816	0.0	323.85623232515087	713.8652002625889	0.0	811.1242614782363	501.197182667345	0.0	863.2355909140043	718.2463223732183	0.0	810.2151309353965	1334.9237346498683	0.0
7	0.23357613596947627	533.8294091631349	751.8473666483885	0.0	405.326244973292	748.1884723830923	0.0	276.1956204149897	677.2419826382327	0.0	181.40581050550895	715.0871150593762	0.0			0.0			0.0			0.0	581.4182260690029	754.0504410986397	0.0	802.07804937765	698.3604806220928	0.0	1021.932276024585	610.158658450232	0.0	513.93505859375	710.3623046875	0.0	836.0301041541002	273.4706758332129	0.0			0.0	577.0870802408505	367.5930236882781	0.0	503.7254292637964	29.713730001639377	0.0	472.2573167253217	223.92850039655238	0.0	409.20442776135405	463.9069803452106	0.0	358.23456312932234	698.4627896262201	0.0	326.99216912792406	715.8055359462456	0.0	811.8538230459811	501.6026636253416	0.0	864.4735644932837	716.5561974951413	0.0	810.2151310644485	1334.923734946158	0.0
8	0.26694415539368715	523.9717680651459	757.6091678225034	0.0	405.37744562193967	748.0904210246	0.0	276.1956232536563	677.2419809593799	0.0	181.40581050550895	715.0871150593762	0.0			0.0			0.0			0.0	581.2948984786881	753.9687603919509	0.0	802.0780493776499	698.3604806220928	0.0	1021.932276024585	610.158658450232	0.0	513.93505859375	710.3623046875	0.0	836.0301041541002	273.4706758332129	0.0			0.0	574.4450468427209	370.7044152268123	0.0	505.956145371897	29.752192813292197	0.0	470.1060540937789	224.73231531901249	0.0	407.92188723518166	463.1642553065022	0.0	354.6111903675111	696.567404101865	0.0	322.5427523486168	713.4248025972382	0.0	809.7139398152622	502.84651856081973	0.0	865.5629915700347	709.1842507591854	0.0	810.2151305874552	1334.9237342481251	0.0
9	0.30031217481789807	510.41751755157253	764.9481629807667	0.0	405.4983559781012	747.8587112570455	0.0	276.19561956312117	677.2419804262471	0.0	181.40581050550895	715.0871150593762	0.0			0.0			0.0			0.0	581.0031008611211	753.7757391868719	0.0	802.0780493776498	698.3604806220927	0.0	1021.932276024585	610.158658450232	0.0	513.93505859375	710.3623046875	0.0	836.0301041541002	273.4706758332129	0.0			0.0	575.5912764544261	372.002883857545	0.0	507.4937632582661	29.196354367201234	0.0	467.59891115995634	222.59284313414503	0.0	411.2857067360293	459.4048760593706	0.0	355.9881479615218	695.6901244602888	0.0	314.06723786694346	713.5034656782786	0.0	808.0847552871953	502.3352656827513	0.0	866.8324630550131	713.0347425103145	0.0	810.2151290282637	1334.92373141775	0.0
